<?xml version="1.0" standalone="no"?>
<!DOCTYPE svg PUBLIC "-//W3C//DTD SVG 20010904//EN"
 "http://www.w3.org/TR/2001/REC-SVG-20010904/DTD/svg10.dtd">
<svg version="1.0" xmlns="http://www.w3.org/2000/svg"
 width="1008.000000pt" height="854.000000pt" viewBox="0 0 1008.000000 854.000000"
 preserveAspectRatio="xMidYMid meet">

<g transform="translate(0.000000,854.000000) scale(0.100000,-0.100000)"
fill="#000000" stroke="none">
<path d="M5100 8510 c-215 -37 -379 -74 -499 -113 -113 -36 -396 -175 -438
-215 -19 -17 -42 -60 -63 -117 -28 -76 -34 -103 -34 -177 0 -51 5 -93 11 -99
8 -8 38 12 108 71 138 116 344 268 453 334 104 63 483 264 580 307 34 16 62
31 62 34 0 7 11 8 -180 -25z"/>
<path d="M4812 8175 c-209 -47 -401 -219 -529 -472 l-57 -113 -217 0 c-119 0
-241 -5 -270 -10 -64 -12 -113 -44 -269 -178 l-115 -98 -70 28 c-38 15 -113
35 -166 44 l-97 17 -6 57 c-6 55 -9 59 -69 107 -87 71 -158 112 -230 135 -69
21 -279 38 -262 20 6 -5 64 -50 131 -100 75 -56 145 -119 183 -164 60 -71 61
-73 39 -82 -143 -55 -229 -125 -313 -254 -78 -121 -99 -188 -99 -317 -1 -134
14 -186 90 -296 l53 -78 -44 -40 c-25 -23 -64 -49 -87 -58 -24 -9 -109 -50
-190 -90 -165 -82 -174 -92 -218 -226 l-22 -68 -51 31 c-87 52 -249 132 -306
151 -30 11 -73 19 -96 19 -63 0 -181 -63 -310 -167 -244 -194 -653 -637 -833
-901 l-57 -84 -3 -130 c-8 -309 73 -798 189 -1136 46 -133 138 -327 198 -418
212 -320 646 -610 1126 -755 l120 -36 3 -65 c3 -77 31 -64 -213 -104 -341 -55
-543 -106 -772 -195 -159 -62 -207 -103 -250 -212 -14 -34 -34 -56 -83 -93
-101 -75 -246 -223 -269 -274 -24 -54 -26 -81 -6 -119 27 -54 74 -60 205 -25
14 4 -24 -23 -85 -60 -124 -75 -199 -144 -320 -294 -111 -138 -159 -235 -160
-320 0 -59 2 -66 33 -93 24 -22 42 -29 72 -29 90 0 271 94 494 258 267 196
600 398 988 599 284 146 408 206 414 200 2 -2 11 -52 20 -113 9 -60 17 -109
17 -110 16 -7 332 -230 417 -293 256 -191 316 -250 468 -467 92 -132 144 -165
222 -144 87 24 112 110 66 235 -14 38 -24 70 -23 72 7 6 219 -47 249 -63 18
-9 76 -48 129 -85 149 -107 220 -130 289 -94 63 33 75 83 35 154 -14 23 -25
45 -25 48 0 10 95 -9 124 -24 17 -9 82 -58 145 -109 139 -113 214 -154 282
-154 98 0 140 81 91 175 -66 129 -328 353 -607 518 -158 94 -537 254 -738 311
l-59 17 -94 196 c-52 108 -92 198 -90 200 2 3 64 -9 138 -25 777 -176 1939
-284 2603 -243 382 24 755 82 997 156 13 4 -60 -77 -167 -186 -169 -171 -326
-345 -435 -478 l-35 -42 -140 -24 c-404 -69 -674 -167 -1015 -371 -245 -146
-453 -315 -462 -374 -7 -43 11 -77 50 -96 54 -25 137 -8 350 72 240 91 232 89
232 56 0 -40 25 -70 69 -83 56 -17 138 0 371 77 109 35 213 64 232 64 l36 0
-5 -43 c-4 -36 -1 -48 19 -72 50 -57 160 -44 348 43 70 33 84 35 204 41 l130
6 149 160 c186 199 376 419 473 548 41 54 74 94 74 90 0 -5 -20 -69 -45 -143
-64 -189 -149 -485 -175 -610 -27 -132 -37 -289 -20 -349 7 -26 26 -59 45 -78
28 -28 40 -33 82 -33 147 0 279 207 399 629 74 261 275 728 352 821 l29 34 21
-40 c29 -58 68 -208 96 -373 l24 -144 -20 -91 c-25 -111 -31 -320 -9 -379 20
-58 64 -102 116 -117 41 -11 48 -10 92 11 84 42 148 172 196 400 l23 112 13
-44 c37 -126 131 -173 219 -110 76 54 139 256 158 503 8 118 3 130 -135 336
-85 125 -121 169 -213 255 l-110 104 48 18 c188 69 551 290 779 472 134 107
346 311 428 413 315 390 551 1028 535 1448 -4 104 -9 131 -46 239 -76 225
-203 461 -437 813 -163 245 -257 361 -435 540 -217 217 -435 382 -577 437 -60
23 -82 26 -188 26 -130 0 -207 -11 -357 -48 -173 -44 -311 -93 -398 -144 l-85
-49 -42 48 c-23 26 -71 65 -106 86 l-65 39 -5 90 c-5 99 -28 171 -83 265 -79
136 -259 285 -407 338 -65 24 -87 26 -234 28 l-162 1 -108 82 c-118 88 -192
128 -437 232 l-161 68 -6 119 c-11 199 -63 326 -184 448 -180 181 -513 290
-733 239z m321 -131 c261 -82 425 -234 466 -432 32 -154 -5 -388 -88 -549 -25
-51 -26 -71 -4 -95 24 -27 68 -23 92 8 23 29 74 157 93 231 7 26 13 49 13 50
2 4 295 -121 375 -161 41 -20 108 -61 148 -90 l73 -53 -53 -18 c-142 -46 -186
-83 -159 -134 19 -34 50 -34 131 -1 159 66 354 94 500 71 77 -12 173 -53 225
-96 l30 -25 -45 16 c-91 31 -228 62 -321 74 -179 21 -253 -8 -693 -274 -441
-267 -613 -352 -821 -407 -255 -66 -679 -117 -1265 -154 -408 -25 -1260 -57
-1340 -51 -96 8 -109 19 -92 81 25 92 67 187 89 198 54 29 189 158 237 227
142 201 326 406 547 611 l96 89 -18 -67 c-25 -90 -65 -328 -83 -503 -12 -109
-35 -460 -36 -532 0 -5 20 -8 43 -8 l44 0 6 183 c13 368 80 821 139 942 39 79
101 161 162 211 112 94 94 89 335 93 l214 3 -35 -42 c-48 -55 -52 -76 -23
-106 33 -33 52 -30 96 16 59 61 93 117 134 215 59 145 121 241 215 335 171
172 344 216 573 144z m-2152 -795 l12 33 59 -6 c51 -6 178 -39 200 -52 4 -2
-61 -68 -143 -145 -160 -151 -296 -303 -412 -461 -40 -53 -75 -97 -79 -98 -12
0 -70 91 -91 144 -25 64 -27 171 -4 246 9 30 33 84 54 118 82 135 166 205 283
235 l53 14 28 -31 28 -31 12 34z m3783 -519 c61 -15 164 -47 230 -70 113 -41
119 -45 147 -88 49 -78 72 -149 72 -232 2 -191 -78 -283 -378 -433 -205 -102
-402 -164 -748 -236 -103 -21 -194 -44 -202 -51 -20 -16 -19 -64 0 -80 9 -7
31 -13 50 -12 38 1 310 59 455 97 52 13 96 22 98 20 2 -2 -67 -81 -153 -177
-152 -167 -226 -254 -457 -535 -201 -244 -407 -420 -559 -477 -85 -32 -361
-101 -503 -125 -199 -35 -327 -44 -545 -38 -217 5 -346 22 -541 72 -318 81
-731 265 -940 419 -148 109 -315 293 -363 402 -17 38 -22 41 -86 57 -37 9
-111 35 -164 59 l-96 42 -10 46 c-23 108 -33 260 -21 328 18 106 48 232 72
295 l21 58 110 55 c64 33 107 50 104 41 -20 -52 -47 -153 -47 -176 0 -42 34
-87 75 -101 45 -15 186 -17 515 -9 135 4 223 5 195 3 -351 -26 -589 -57 -688
-90 -31 -10 -61 -13 -87 -9 l-39 7 -30 -61 -31 -60 30 -16 c36 -18 43 -15 59
23 10 23 18 28 49 29 20 0 70 10 110 22 216 61 663 90 1722 111 1101 22 1427
59 1788 204 191 77 425 204 600 325 41 28 75 51 78 51 2 0 4 -7 4 -15 0 -13
21 -15 132 -15 l131 0 -106 80 c-59 44 -109 80 -113 80 -4 0 -36 -22 -73 -49
-242 -178 -525 -332 -776 -421 -328 -116 -660 -145 -1914 -170 -524 -11 -684
-9 -359 4 702 27 1366 108 1645 201 135 45 387 177 708 370 317 191 439 257
510 274 60 15 195 3 319 -29z m1777 -530 c118 -44 329 -208 539 -419 172 -174
240 -258 409 -511 271 -407 413 -691 457 -914 15 -74 16 -103 6 -199 -45 -457
-265 -976 -554 -1307 -236 -270 -678 -599 -1016 -757 -228 -107 -395 -142
-558 -118 -115 18 -249 49 -299 69 l-35 15 0 68 c0 37 -3 98 -7 135 l-6 68 47
0 c195 0 449 120 620 293 269 273 448 582 502 865 27 144 2 391 -81 777 -167
784 -384 1384 -533 1477 -32 20 -50 23 -137 23 -235 -2 -490 -122 -698 -331
-94 -94 -184 -216 -346 -467 -185 -287 -212 -326 -276 -395 -67 -72 -101 -90
-142 -70 -58 28 -63 99 -12 186 25 43 24 44 -12 66 -30 18 -31 18 -47 -5 -64
-92 -203 -220 -277 -255 -61 -29 -81 -30 -122 -4 -32 19 -38 36 -33 85 5 51
85 156 168 221 l47 38 0 70 c1 78 42 220 77 266 46 60 512 570 521 570 20 0
258 120 328 165 87 56 165 134 199 198 14 26 28 47 31 47 16 0 104 -68 125
-96 l23 -30 -90 -75 c-99 -80 -139 -122 -139 -145 0 -22 37 -54 63 -54 13 1
69 40 142 101 236 198 332 248 610 319 234 60 400 70 506 30z m-6883 -215 c42
-20 125 -63 185 -97 l107 -62 -7 -35 c-5 -20 -8 -101 -7 -181 0 -153 20 -279
50 -325 18 -28 162 -100 269 -135 68 -22 71 -25 112 -89 91 -144 250 -301 421
-414 l72 -49 -17 -30 c-43 -72 -113 -134 -113 -99 0 8 -52 31 -71 31 -5 0 -9
-6 -9 -13 0 -33 -124 -260 -166 -304 l-45 -48 4 65 c5 74 69 274 142 444 25
60 43 112 38 115 -5 3 -55 41 -112 84 -116 88 -179 121 -361 195 -130 52 -236
86 -305 97 -85 13 -174 -41 -375 -227 -204 -190 -375 -387 -429 -496 l-26 -53
23 -86 c31 -120 100 -290 198 -484 150 -297 260 -446 546 -736 95 -96 150
-144 169 -148 16 -4 27 -10 25 -14 -3 -4 -9 -60 -15 -125 -6 -66 -12 -121 -15
-123 -7 -7 -169 44 -279 88 -346 138 -654 358 -830 594 -218 292 -371 848
-403 1460 -7 153 -4 166 79 278 234 316 642 739 856 887 131 91 163 95 289 35z
m1655 -92 c-29 -2 -77 -2 -105 0 -29 2 -6 3 52 3 58 0 81 -1 53 -3z m4676
-217 c138 -77 419 -946 545 -1686 41 -242 50 -374 31 -482 -44 -257 -173 -493
-424 -777 -171 -193 -371 -301 -608 -326 l-63 -7 0 105 c0 143 16 374 42 602
16 140 22 252 22 425 1 219 -1 239 -22 300 -30 88 -70 156 -132 223 -36 39
-60 57 -76 57 -27 0 -64 -32 -64 -54 0 -8 23 -41 51 -73 59 -67 100 -144 120
-223 18 -73 16 -326 -5 -530 -9 -85 -20 -195 -26 -245 -23 -232 -31 -478 -21
-658 6 -100 13 -234 17 -297 l6 -115 -101 -201 c-181 -362 -339 -574 -789
-1060 l-103 -112 -112 -4 c-108 -4 -116 -6 -233 -55 -67 -28 -136 -54 -154
-58 -31 -7 -31 -6 -19 17 7 12 52 64 101 115 48 50 88 98 88 107 0 22 -36 56
-59 56 -21 0 -113 -75 -154 -126 -26 -30 -26 -30 -109 -26 -80 4 -90 2 -283
-61 -110 -36 -216 -68 -235 -72 l-35 -7 25 19 c51 40 178 122 268 173 96 55
115 78 93 118 -21 39 -47 36 -137 -13 -48 -25 -123 -70 -168 -99 -65 -42 -95
-55 -153 -65 -69 -12 -170 -45 -432 -140 -63 -23 -116 -40 -118 -37 -16 16
305 236 502 343 166 91 289 143 445 188 128 37 420 98 522 110 54 7 58 9 101
64 109 141 253 298 538 586 l306 310 -14 210 c-9 151 -11 272 -5 430 l9 220
-38 65 c-61 104 -123 193 -142 204 -13 8 -24 7 -45 -4 -48 -27 -41 -56 46
-188 l15 -23 -31 18 c-38 22 -78 7 -88 -34 -7 -25 1 -35 74 -104 l82 -76 1
-234 c1 -129 4 -278 8 -333 7 -116 20 -103 -158 -160 -301 -97 -649 -153
-1101 -177 -652 -34 -1823 82 -2540 252 -214 51 -193 40 -227 117 -41 91 -96
263 -148 462 l-42 166 109 157 110 158 128 64 c136 68 154 87 124 132 -18 29
-52 29 -104 3 -51 -26 -53 -25 -45 9 5 22 1 35 -14 50 -45 45 -79 23 -122 -79
-17 -41 -53 -104 -79 -140 -26 -36 -89 -125 -140 -198 l-92 -134 47 -185 c89
-353 121 -436 365 -945 l104 -216 131 -42 c165 -53 430 -158 560 -221 189 -92
417 -252 575 -405 211 -205 149 -207 -102 -4 -153 123 -173 132 -323 139
l-122 6 -59 51 c-154 132 -578 424 -617 424 -13 0 -32 -9 -41 -19 -35 -39 -18
-61 114 -150 265 -177 472 -334 588 -444 114 -109 67 -110 -83 -1 -113 82
-181 117 -270 139 -58 14 -225 45 -246 45 -3 0 -28 33 -54 73 -57 85 -146 204
-228 305 -46 55 -66 72 -85 72 -31 0 -62 -26 -62 -52 0 -11 38 -68 85 -126
176 -220 323 -460 339 -555 6 -32 4 -37 -13 -37 -21 0 -51 35 -128 150 -77
115 -146 192 -246 277 -114 96 -337 261 -479 356 -59 40 -110 79 -112 87 -8
23 -43 316 -58 480 -7 81 -12 287 -12 470 -1 387 4 415 93 595 77 156 206 370
288 480 36 48 126 149 200 225 83 87 133 146 133 159 0 27 -34 61 -62 61 -13
0 -51 -31 -106 -86 l-85 -86 7 38 c15 78 51 150 149 296 l101 151 -17 28 c-16
28 -16 29 12 43 32 17 87 75 119 128 31 50 48 40 56 -30 11 -88 44 -200 79
-266 40 -75 135 -178 196 -213 25 -15 81 -63 123 -109 172 -182 433 -297 812
-356 190 -30 611 -32 781 -5 397 63 787 217 1080 426 44 32 109 68 145 80 294
104 346 134 322 186 -19 41 -49 40 -158 -4 -451 -179 -1009 -317 -1514 -372
-172 -19 -595 -17 -755 5 -351 46 -708 172 -839 296 -75 71 -146 215 -146 297
l0 23 58 -26 c215 -97 474 -183 676 -224 251 -51 583 -65 841 -35 281 33 655
126 784 196 147 79 347 262 525 479 43 52 81 98 85 102 3 4 4 -18 3 -48 -4
-53 -6 -56 -82 -133 -131 -133 -168 -245 -107 -324 80 -106 208 -94 364 33
l63 51 13 -34 c18 -42 67 -83 114 -96 57 -16 104 2 172 65 76 70 126 138 301
409 185 286 239 361 333 461 154 163 346 276 542 319 78 17 184 18 214 1z
m-6088 -635 c82 -21 297 -105 392 -153 69 -34 195 -119 222 -148 15 -17 13
-26 -39 -157 -73 -184 -107 -302 -113 -395 -5 -72 -4 -78 20 -102 28 -28 50
-32 91 -16 l26 10 -20 -39 c-24 -48 -55 -157 -79 -285 -17 -87 -25 -104 -78
-184 -109 -159 -247 -404 -306 -539 -22 -52 -29 -61 -44 -55 -29 11 -310 306
-398 417 -44 55 -105 138 -135 185 -113 176 -278 533 -326 708 -17 62 -17 65
2 100 36 69 137 187 298 350 173 176 287 274 351 303 50 23 46 23 136 0z
m3734 -1171 c-348 -167 -749 -251 -1130 -237 -235 9 -450 42 -630 98 -69 21
-248 99 -242 105 2 2 56 -10 121 -26 238 -60 368 -74 711 -74 236 0 343 4 450
17 211 26 422 64 600 106 88 21 165 39 170 39 6 0 -17 -13 -50 -28z m-3651
-1992 l7 -63 -323 -162 c-437 -219 -792 -425 -1018 -590 -250 -183 -464 -313
-515 -313 -21 0 -23 3 -16 28 39 135 253 389 404 480 171 102 738 410 1200
652 87 45 164 89 172 97 31 31 5 93 -39 93 -11 0 -178 -83 -371 -185 l-351
-184 -134 -17 c-132 -17 -138 -18 -245 -75 -118 -62 -261 -122 -278 -116 -14
4 92 116 184 193 43 36 110 80 151 98 136 63 527 184 861 267 105 26 131 36
144 56 21 31 5 70 -32 79 -41 10 -543 -124 -802 -214 -62 -21 -113 -35 -113
-30 0 24 283 130 484 183 84 21 394 80 546 102 l55 8 11 -162 c6 -89 15 -190
18 -225z m5897 -25 c62 -4 114 -1 183 12 l96 17 121 -113 c120 -112 146 -144
273 -333 66 -99 66 -100 66 -170 0 -191 -81 -471 -128 -442 -23 14 -34 91 -31
230 l3 141 -41 90 c-26 57 -50 131 -64 200 -12 61 -24 111 -25 113 -1 2 -28 0
-59 -3 l-56 -7 5 -62 c3 -33 13 -138 22 -232 16 -166 16 -174 -5 -316 -42
-294 -117 -508 -177 -508 -47 0 -58 183 -23 353 25 121 22 175 -21 387 -44
220 -97 356 -152 395 -13 8 -40 15 -60 15 -52 0 -108 -52 -171 -159 -98 -164
-250 -530 -316 -757 -73 -254 -169 -472 -238 -540 -45 -45 -60 -43 -74 9 -24
90 34 377 156 762 110 348 209 593 347 855 l61 115 111 -23 c61 -12 150 -25
197 -29z"/>
<path d="M4942 7690 c-124 -35 -314 -144 -497 -284 -44 -34 -101 -74 -126 -88
-58 -34 -79 -66 -79 -121 0 -52 27 -83 110 -121 30 -14 85 -43 121 -65 140
-82 285 -126 394 -119 156 11 427 171 638 378 71 70 87 91 87 115 -1 95 -229
267 -410 309 -84 20 -160 19 -238 -4z m343 -117 c64 -32 188 -126 210 -159 16
-25 16 -27 -12 -56 -124 -133 -402 -323 -547 -375 -92 -32 -224 -8 -370 67
-282 147 -271 138 -235 176 13 14 35 32 49 39 14 7 74 50 135 95 l109 82 12
-65 c7 -35 21 -82 33 -104 27 -55 111 -128 168 -147 109 -37 237 -9 318 70 67
64 90 121 90 219 0 79 -1 83 -53 189 -6 11 33 -2 93 -31z"/>
<path d="M3785 6276 c-81 -27 -315 -147 -315 -162 0 -2 52 -4 115 -4 109 0
115 1 115 21 0 38 147 88 176 59 14 -14 74 -1 74 17 0 25 -20 52 -50 68 -35
18 -61 18 -115 1z"/>
<path d="M2910 6210 c0 -36 2 -40 25 -40 16 0 42 -16 70 -41 l44 -41 31 22
c16 12 30 25 30 29 0 14 -88 91 -116 101 -14 6 -39 10 -55 10 -27 0 -29 -2
-29 -40z"/>
<path d="M6961 5807 c-43 -22 -64 -61 -64 -119 0 -117 90 -207 178 -178 117
39 103 235 -22 299 -28 14 -62 14 -92 -2z m95 -112 c9 -14 14 -39 12 -62 -3
-33 -6 -38 -27 -38 -33 0 -63 43 -63 90 0 61 41 66 78 10z"/>
<path d="M8933 5630 c-50 -30 -73 -85 -73 -175 0 -281 282 -586 448 -485 89
55 96 243 15 404 -106 212 -278 325 -390 256z m144 -90 c82 -47 156 -150 198
-274 28 -85 32 -154 10 -196 -41 -80 -183 -2 -273 149 -70 119 -96 287 -52
331 27 27 56 25 117 -10z"/>
<path d="M6798 5557 c-145 -54 -279 -214 -308 -368 -32 -166 81 -247 236 -169
217 108 346 424 213 522 -34 25 -95 32 -141 15z m100 -89 c42 -42 -18 -205
-109 -299 -56 -58 -147 -104 -185 -95 -107 27 16 302 172 385 44 23 104 27
122 9z"/>
<path d="M9481 4823 c-46 -37 -46 -147 -1 -277 36 -107 104 -186 159 -186 99
0 106 193 13 365 -56 102 -120 139 -171 98z m105 -155 c42 -83 70 -228 44
-228 -14 0 -57 68 -75 120 -22 60 -36 150 -29 174 6 20 7 20 21 0 8 -10 26
-40 39 -66z"/>
<path d="M9295 4516 c-56 -56 -56 -167 0 -263 71 -120 211 -108 230 20 9 61 0
112 -33 172 -49 90 -144 124 -197 71z m105 -86 c50 -53 64 -164 22 -178 -19
-6 -71 55 -83 100 -13 51 -4 108 17 108 9 0 28 -13 44 -30z"/>
<path d="M1432 5865 c-123 -48 -276 -164 -334 -254 -39 -62 -39 -121 0 -151
118 -94 552 181 552 350 0 19 -9 40 -25 55 -32 33 -106 33 -193 0z m138 -63
c0 -20 -62 -93 -115 -136 -31 -25 -85 -62 -119 -80 -64 -36 -173 -72 -184 -62
-23 23 89 142 192 204 101 62 226 102 226 74z"/>
<path d="M915 5341 c-111 -28 -215 -132 -215 -217 0 -35 5 -47 31 -68 42 -35
90 -34 166 4 106 53 179 158 154 222 -19 49 -75 74 -136 59z m55 -96 c0 -41
-110 -125 -165 -125 -34 0 -32 21 7 65 53 61 158 101 158 60z"/>
</g>
</svg>
